<svg width="22" height="22" viewBox="0 0 22 22" fill="none" xmlns="http://www.w3.org/2000/svg">
<path d="M14.8391 8.16309L13.0207 9.64927L13.5755 11.8713C13.5971 11.9555 13.5923 12.0442 13.5619 12.1256C13.5315 12.207 13.4768 12.2771 13.4054 12.3266C13.3326 12.3779 13.2468 12.4075 13.1579 12.412C13.069 12.4164 12.9806 12.3956 12.903 12.3519L10.8666 11.1536L8.83009 12.3519C8.75197 12.3942 8.66364 12.414 8.57495 12.409C8.48625 12.4041 8.40068 12.3746 8.32776 12.3238C8.25612 12.2749 8.20076 12.2057 8.16882 12.125C8.13688 12.0444 8.12982 11.956 8.14855 11.8713L8.70247 9.64927L6.88412 8.164C6.81583 8.10981 6.76584 8.03596 6.74091 7.95242C6.71598 7.86889 6.71732 7.77972 6.74473 7.69697C6.77369 7.61339 6.82649 7.54014 6.89663 7.48625C6.96676 7.43236 7.05115 7.40021 7.13936 7.39376L9.51163 7.21907L10.4213 5.0939C10.4575 5.01368 10.5164 4.94577 10.5907 4.89851C10.6649 4.85125 10.7514 4.82667 10.8394 4.8278C11.0213 4.8278 11.1861 4.93279 11.2576 5.0939L12.1663 7.21907L14.5304 7.39376C14.6234 7.38979 14.7154 7.4146 14.7938 7.46481C14.8722 7.51502 14.9332 7.58819 14.9685 7.67434C15.002 7.75894 15.0076 7.85206 14.9843 7.94003C14.961 8.028 14.9101 8.10619 14.8391 8.16309Z" fill="#303030"/>
<path d="M10.8613 15.1278C14.3605 15.1278 17.1971 12.2912 17.1971 8.79213C17.1971 5.29301 14.3605 2.45642 10.8613 2.45642C7.36223 2.45642 4.52563 5.29301 4.52563 8.79213C4.52563 12.2912 7.36223 15.1278 10.8613 15.1278Z" stroke="#303030" stroke-width="1.8102"/>
<path d="M7.24072 19.2524V14.4816H14.5657V19.2524C14.5658 19.3597 14.5384 19.4653 14.4861 19.559C14.4338 19.6527 14.3583 19.7315 14.2669 19.7878C14.1755 19.8441 14.0712 19.876 13.9639 19.8805C13.8567 19.885 13.7501 19.8619 13.6543 19.8135L11.1861 18.5654C11.0981 18.5214 11.0011 18.4985 10.9028 18.4985C10.8044 18.4985 10.7074 18.5214 10.6195 18.5654L8.15216 19.8126C8.05642 19.861 7.94989 19.884 7.84272 19.8796C7.73555 19.8751 7.6313 19.8433 7.53992 19.7871C7.44854 19.7309 7.37307 19.6523 7.32069 19.5587C7.26832 19.4651 7.24079 19.3596 7.24072 19.2524Z" fill="#303030"/>
</svg>
