<svg width="21" height="21" viewBox="0 0 21 21" fill="none" xmlns="http://www.w3.org/2000/svg">
<path d="M17.6266 14.1267H10.4802" stroke="#131316" stroke-width="1.78657" stroke-linecap="round" stroke-linejoin="round"/>
<path d="M3.33398 5.78809H10.4803" stroke="#131316" stroke-width="1.78657" stroke-linecap="round" stroke-linejoin="round"/>
<path d="M5.71464 14.1267H3.33252" stroke="#131316" stroke-width="1.78657" stroke-linecap="round" stroke-linejoin="round"/>
<path d="M15.2454 5.78809H17.6276" stroke="#131316" stroke-width="1.78657" stroke-linecap="round" stroke-linejoin="round"/>
<path d="M8.10014 16.5084C9.41575 16.5084 10.4823 15.4419 10.4823 14.1263C10.4823 12.8107 9.41575 11.7443 8.10014 11.7443C6.78453 11.7443 5.71802 12.8107 5.71802 14.1263C5.71802 15.4419 6.78453 16.5084 8.10014 16.5084Z" stroke="#131316" stroke-width="1.78657" stroke-linecap="round" stroke-linejoin="round"/>
<path d="M12.8601 8.17107C11.5445 8.17107 10.4779 7.1046 10.4779 5.78903C10.4779 4.47346 11.5445 3.40698 12.8601 3.40698C14.1757 3.40698 15.2422 4.47346 15.2422 5.78903C15.2422 7.1046 14.1757 8.17107 12.8601 8.17107Z" stroke="#131316" stroke-width="1.78657" stroke-linecap="round" stroke-linejoin="round"/>
</svg>
