<svg width="22" height="22" viewBox="0 0 22 22" fill="none" xmlns="http://www.w3.org/2000/svg">
<path d="M18.8075 10.2096L14.1553 5.56646C14.1133 5.52405 14.0632 5.49038 14.0081 5.4674C13.9529 5.44443 13.8938 5.4326 13.834 5.4326C13.7743 5.4326 13.7151 5.44443 13.66 5.4674C13.6048 5.49038 13.5548 5.52405 13.5127 5.56646L12.8701 6.20908C12.8279 6.25038 12.7945 6.29967 12.7716 6.35406C12.7487 6.40846 12.737 6.46687 12.737 6.52587C12.737 6.58487 12.7487 6.64328 12.7716 6.69768C12.7945 6.75207 12.8279 6.80136 12.8701 6.84266L15.9927 9.9562H6.7878C6.66778 9.9562 6.55267 10.0039 6.4678 10.0888C6.38293 10.1736 6.33525 10.2887 6.33525 10.4088V11.3139C6.33525 11.4339 6.38293 11.549 6.4678 11.6339C6.55267 11.7187 6.66778 11.7664 6.7878 11.7664H15.9927L12.8701 14.88C12.8277 14.922 12.794 14.9721 12.771 15.0272C12.748 15.0824 12.7362 15.1415 12.7362 15.2013C12.7362 15.261 12.748 15.3202 12.771 15.3753C12.794 15.4305 12.8277 15.4805 12.8701 15.5226L13.5127 16.1562C13.5548 16.1986 13.6048 16.2322 13.66 16.2552C13.7151 16.2782 13.7743 16.29 13.834 16.29C13.8938 16.29 13.9529 16.2782 14.0081 16.2552C14.0632 16.2322 14.1133 16.1986 14.1553 16.1562L18.8075 11.513C18.9349 11.3858 19.0065 11.2133 19.0067 11.0333V10.6893C19.0046 10.5098 18.9333 10.3379 18.8075 10.2096ZM9.5031 17.197H4.52505V4.5256H9.5031C9.62313 4.5256 9.73824 4.47792 9.82311 4.39305C9.90798 4.30818 9.95566 4.19307 9.95566 4.07305V3.16794C9.95566 3.04792 9.90798 2.93281 9.82311 2.84794C9.73824 2.76307 9.62313 2.71539 9.5031 2.71539H4.52505C4.04495 2.71539 3.58452 2.90611 3.24504 3.24559C2.90556 3.58507 2.71484 4.0455 2.71484 4.5256V17.197C2.71484 17.6771 2.90556 18.1375 3.24504 18.477C3.58452 18.8165 4.04495 19.0072 4.52505 19.0072H9.5031C9.62313 19.0072 9.73824 18.9595 9.82311 18.8747C9.90798 18.7898 9.95566 18.6747 9.95566 18.5547V17.6496C9.95566 17.5295 9.90798 17.4144 9.82311 17.3296C9.73824 17.2447 9.62313 17.197 9.5031 17.197Z" fill="#303030"/>
</svg>
