<svg width="40" height="32" viewBox="0 0 40 32" fill="none" xmlns="http://www.w3.org/2000/svg">
<g clip-path="url(#clip0_1_4165)">
<g clip-path="url(#clip1_1_4165)">
<g clip-path="url(#clip2_1_4165)">
<path fill-rule="evenodd" clip-rule="evenodd" d="M35.6277 0.835469C37.3489 1.29844 38.7041 2.6625 39.1641 4.39484C40 7.53445 40 14.085 40 14.085C40 14.085 40 20.6355 39.1641 23.7754C38.7041 25.5074 37.3489 26.8716 35.6277 27.3347C32.5084 28.1759 20.0001 28.1759 20.0001 28.1759C20.0001 28.1759 7.49172 28.1759 4.37234 27.3347C2.65133 26.8716 1.29586 25.5074 0.835938 23.7754C0 20.6355 0 14.085 0 14.085C0 14.085 0 7.53445 0.835938 4.39484C1.29586 2.6625 2.65133 1.29844 4.37234 0.835469C7.49172 -0.00585938 20.0001 -0.00585938 20.0001 -0.00585938C20.0001 -0.00585938 32.5084 -0.00585938 35.6277 0.835469ZM15.9091 20.0323L26.3637 14.0853L15.9091 8.13758V20.0323Z" fill="white"/>
</g>
</g>
</g>
<defs>
<clipPath id="clip0_1_4165">
<rect width="40" height="28.17" fill="white"/>
</clipPath>
<clipPath id="clip1_1_4165">
<rect width="40" height="28.17" fill="white"/>
</clipPath>
<clipPath id="clip2_1_4165">
<rect width="40" height="28.1817" fill="white" transform="translate(0 -0.00585938)"/>
</clipPath>
</defs>
</svg>
