<svg width="22" height="22" viewBox="0 0 22 22" fill="none" xmlns="http://www.w3.org/2000/svg">
<path fill-rule="evenodd" clip-rule="evenodd" d="M17.8247 10.025C17.6145 10.5652 17.6145 11.1646 17.8247 11.7048L17.9478 12.0596C18.164 12.6239 18.1562 13.2495 17.926 13.8082C17.6957 14.3669 17.2606 14.8164 16.7096 15.0646L16.3837 15.2094C15.8492 15.4395 15.4165 15.856 15.1664 16.3815L15.0216 16.7073C14.7731 17.258 14.3235 17.6929 13.7649 17.9231C13.2064 18.1532 12.5809 18.1613 12.0166 17.9455L11.6835 17.8224C11.1433 17.6123 10.5439 17.6123 10.0037 17.8224L9.6697 17.9455C9.10539 18.1613 8.47996 18.1532 7.92137 17.9231C7.36279 17.6929 6.91326 17.258 6.66476 16.7073L6.51994 16.3815C6.28946 15.8471 5.87256 15.4148 5.34693 15.165L5.0211 15.0202C4.47012 14.7721 4.03493 14.3226 3.80471 13.7639C3.5745 13.2052 3.5667 12.5796 3.78292 12.0153L3.90601 11.6831C4.11614 11.1429 4.11614 10.5435 3.90601 10.0032L3.78292 9.67016C3.5667 9.10589 3.5745 8.48029 3.80471 7.92158C4.03493 7.36287 4.47012 6.91338 5.0211 6.66523L5.34693 6.52041C5.8647 6.28182 6.28056 5.86661 6.51994 5.34921L6.68648 5.02337C6.93511 4.46729 7.38842 4.02836 7.95223 3.79778C8.51603 3.5672 9.147 3.56269 9.71405 3.78519L10.0471 3.90829C10.5875 4.11827 11.1866 4.11827 11.727 3.90829L12.0601 3.78519C12.6244 3.56943 13.2498 3.57745 13.8084 3.80762C14.367 4.03778 14.8165 4.47269 15.065 5.02337L15.2098 5.34921C15.4491 5.86744 15.8653 6.28336 16.3837 6.52222L16.7096 6.68876C17.2606 6.93691 17.6957 7.38641 17.926 7.94511C18.1562 8.50382 18.164 9.12942 17.9478 9.6937L17.8247 10.025ZM9.94485 13.2897L14.0151 9.22123C14.0793 9.1539 14.1151 9.06445 14.1151 8.97142C14.1151 8.8784 14.0793 8.78895 14.0151 8.72162L13.6313 8.33785C13.5637 8.27152 13.4727 8.23436 13.3779 8.23436C13.2831 8.23436 13.1921 8.27152 13.1245 8.33785L9.69142 11.77L8.6053 10.6911C8.57279 10.6565 8.53354 10.6289 8.48995 10.61C8.44636 10.5911 8.39937 10.5814 8.35187 10.5814C8.30437 10.5814 8.25738 10.5911 8.21379 10.61C8.1702 10.6289 8.13095 10.6565 8.09844 10.6911L7.71468 11.0749C7.68075 11.1085 7.65381 11.1486 7.63543 11.1927C7.61705 11.2368 7.60759 11.2841 7.60759 11.3319C7.60759 11.3797 7.61705 11.427 7.63543 11.4712C7.65381 11.5153 7.68075 11.5553 7.71468 11.589L9.43799 13.2906C9.4705 13.3252 9.50975 13.3528 9.55334 13.3717C9.59693 13.3905 9.64392 13.4003 9.69142 13.4003C9.73892 13.4003 9.78591 13.3905 9.8295 13.3717C9.87309 13.3528 9.91234 13.3252 9.94485 13.2906" fill="#303030"/>
</svg>
