<svg width="22" height="22" viewBox="0 0 22 22" fill="none" xmlns="http://www.w3.org/2000/svg">
<path d="M17.1971 16.7445V17.6496C17.1971 17.7696 17.1494 17.8847 17.0645 17.9696C16.9796 18.0544 16.8645 18.1021 16.7445 18.1021H4.97819C4.85816 18.1021 4.74305 18.0544 4.65818 17.9696C4.57331 17.8847 4.52563 17.7696 4.52563 17.6496V16.7445C4.52563 16.6244 4.57331 16.5093 4.65818 16.4245C4.74305 16.3396 4.85816 16.2919 4.97819 16.2919H16.7445C16.8645 16.2919 16.9796 16.3396 17.0645 16.4245C17.1494 16.5093 17.1971 16.6244 17.1971 16.7445ZM10.5446 14.3459C10.5852 14.3892 10.6343 14.4237 10.6887 14.4473C10.7432 14.4709 10.802 14.4831 10.8613 14.4831C10.9207 14.4831 10.9795 14.4709 11.0339 14.4473C11.0884 14.4237 11.1375 14.3892 11.1781 14.3459L16.4187 9.10541C16.4611 9.06334 16.4948 9.01329 16.5177 8.95814C16.5407 8.90299 16.5525 8.84384 16.5525 8.7841C16.5525 8.72436 16.5407 8.66521 16.5177 8.61006C16.4948 8.55491 16.4611 8.50486 16.4187 8.46279L16.2376 8.28177C16.1955 8.23804 16.1449 8.20342 16.0888 8.18007C16.0328 8.15672 15.9725 8.14512 15.9118 8.146H13.5766V3.16794C13.5766 3.04792 13.529 2.93281 13.4441 2.84794C13.3592 2.76307 13.2441 2.71539 13.1241 2.71539H8.59859C8.47857 2.71539 8.36346 2.76307 8.27859 2.84794C8.19372 2.93281 8.14604 3.04792 8.14604 3.16794V8.146H5.81088C5.75017 8.14512 5.68992 8.15672 5.63387 8.18007C5.57782 8.20342 5.52717 8.23804 5.48504 8.28177L5.30402 8.46279C5.26161 8.50486 5.22794 8.55491 5.20496 8.61006C5.18199 8.66521 5.17016 8.72436 5.17016 8.7841C5.17016 8.84384 5.18199 8.90299 5.20496 8.95814C5.22794 9.01329 5.26161 9.06334 5.30402 9.10541L10.5446 14.3459Z" fill="#303030"/>
</svg>
