<svg width="30" height="32" viewBox="0 0 30 32" fill="none" xmlns="http://www.w3.org/2000/svg">
<g clip-path="url(#clip0_1_4154)">
<g clip-path="url(#clip1_1_4154)">
<g clip-path="url(#clip2_1_4154)">
<path fill-rule="evenodd" clip-rule="evenodd" d="M25.6245 4.37727C22.842 1.57625 19.0518 -0.00390625 15.1023 -0.00390625H15.0571C6.82485 -0.00384731 0.12501 6.69723 0.12501 14.9346L0.125069 14.9354C0.125562 17.5565 0.815481 20.1312 2.12558 22.4013L0 30.1443L7.91982 28.0655C10.1088 29.2585 12.5616 29.8846 15.0545 29.8868H15.0547H15.0578C23.3088 29.8868 30 23.1955 30 14.9446C30 10.9824 28.4238 7.18071 25.6237 4.38051L25.6245 4.37727ZM15.0622 27.3705C12.8371 27.3705 10.6499 26.7682 8.73843 25.6331L8.28342 25.3618L3.58356 26.593L4.83348 22.0119L4.53972 21.5419C3.29334 19.5612 2.62921 17.2638 2.62921 14.9225C2.62921 8.06374 8.19141 2.50154 15.0501 2.50154C18.3513 2.50154 21.5191 3.81629 23.8484 6.15458C26.1782 8.48559 27.4872 11.6464 27.4875 14.9421C27.4875 21.805 21.9235 27.3705 15.0605 27.3705H15.0622ZM21.8745 18.0632C21.4995 17.8745 19.6659 16.9745 19.3258 16.8495C18.9858 16.7245 18.7359 16.6608 18.4821 17.0383C18.2284 17.4157 17.5171 18.252 17.2996 18.5032C17.0821 18.7545 16.8634 18.787 16.4934 18.5982C16.1234 18.4095 14.9147 18.0157 13.4935 16.7433C12.6748 15.9884 11.9716 15.1173 11.4064 14.1578C11.1876 13.7828 11.3826 13.5816 11.5726 13.3991C11.7626 13.2166 11.9476 12.9641 12.1313 12.7453C12.2866 12.557 12.4129 12.3464 12.506 12.1208C12.5556 12.0179 12.5789 11.9043 12.5737 11.7901C12.5684 11.676 12.5349 11.565 12.4761 11.4671C12.3748 11.2797 11.6247 9.44215 11.3247 8.69344C11.0247 7.94474 10.7135 8.06851 10.4836 8.05095C10.2536 8.03344 10.0173 8.03975 9.77104 8.03975C9.58122 8.0442 9.39437 8.08792 9.22229 8.16817C9.05021 8.24842 8.89661 8.36345 8.7712 8.50601C8.43483 8.87721 7.46864 9.7834 7.46864 11.6209C7.46864 13.4584 8.80485 15.2308 8.99234 15.4833C9.17988 15.7358 11.6247 19.5045 15.3747 21.1208C16.2647 21.5032 16.9597 21.7332 17.4997 21.9107C17.9817 22.0559 18.4824 22.1297 18.9859 22.1298C19.275 22.1298 19.5647 22.1053 19.8493 22.0569C20.5669 21.9519 22.0568 21.1557 22.3705 20.2845C22.6842 19.4132 22.6831 18.6595 22.5892 18.5108C22.4955 18.362 22.253 18.2533 21.8768 18.062L21.8745 18.0632Z" fill="white"/>
</g>
</g>
</g>
<defs>
<clipPath id="clip0_1_4154">
<rect width="30" height="30.14" fill="white"/>
</clipPath>
<clipPath id="clip1_1_4154">
<rect width="30" height="30.14" fill="white"/>
</clipPath>
<clipPath id="clip2_1_4154">
<rect width="30" height="30.1482" fill="white" transform="translate(0 -0.00390625)"/>
</clipPath>
</defs>
</svg>
